<?xml version="1.0" standalone="no"?>
<!DOCTYPE svg PUBLIC "-//W3C//DTD SVG 20010904//EN"
 "http://www.w3.org/TR/2001/REC-SVG-20010904/DTD/svg10.dtd">
<svg version="1.0" xmlns="http://www.w3.org/2000/svg"
 width="1024.000000pt" height="1024.000000pt" viewBox="0 0 1024.000000 1024.000000"
 preserveAspectRatio="xMidYMid meet">

<g transform="translate(0.000000,1024.000000) scale(0.100000,-0.100000)"
fill="#000000" stroke="none">
<path d="M0 5120 l0 -5120 5120 0 5120 0 0 5120 0 5120 -5120 0 -5120 0 0
-5120z m7930 2730 c248 -40 420 -168 525 -393 69 -147 65 -12 65 -2219 0
-1961 0 -1994 -20 -2077 -61 -252 -257 -449 -507 -508 -75 -17 -202 -18 -2883
-18 -2675 0 -2808 1 -2870 18 -245 68 -413 234 -492 487 l-23 75 0 2030 c0
2284 -7 2071 77 2243 48 98 156 219 241 270 64 39 172 78 248 91 79 13 5557
14 5639 1z"/>
<path d="M2312 7364 c-52 -26 -85 -60 -116 -121 -15 -30 -16 -200 -14 -2011
l3 -1979 28 -41 c33 -47 87 -86 143 -101 28 -8 839 -11 2777 -11 3050 0 2774
-7 2838 69 17 20 39 46 49 57 11 12 24 33 30 48 7 18 10 665 10 1971 0 1784
-1 1948 -17 1987 -25 67 -61 108 -117 134 l-51 24 -2756 0 -2755 0 -52 -26z
m3188 -669 c289 -43 497 -178 600 -388 61 -124 75 -189 74 -347 -1 -118 -4
-145 -27 -216 -46 -139 -141 -263 -267 -350 l-67 -46 101 -51 c129 -66 251
-182 309 -294 62 -120 80 -204 81 -378 0 -167 -13 -240 -64 -351 -113 -250
-337 -408 -664 -471 -82 -16 -168 -18 -836 -18 l-745 0 -3 1450 c-1 798 0
1456 3 1463 7 19 1375 17 1505 -3z"/>
<path d="M4590 5874 l0 -346 368 4 c357 4 369 4 427 27 77 30 155 107 179 177
60 172 6 351 -131 431 -82 48 -129 53 -500 53 l-343 0 0 -346z"/>
<path d="M4590 4676 l0 -396 373 0 c208 0 401 5 437 11 140 22 250 100 290
207 76 202 -3 430 -177 512 -92 43 -152 49 -546 56 l-377 7 0 -397z"/>
</g>
</svg>
